<svg height="48pt" viewBox="0 0 48 48" width="48pt" xmlns="http://www.w3.org/2000/svg" xmlns:xlink="http://www.w3.org/1999/xlink"><linearGradient id="a" gradientTransform="matrix(29.74 0 0 47.99 18.26 .17)" gradientUnits="userSpaceOnUse" x1=".51" x2=".301372" y1="-.017442" y2="1.077176"><stop offset="0" stop-color="#16b5e4"/><stop offset=".98260869565" stop-color="#f520fa"/></linearGradient><linearGradient id="b" gradientTransform="matrix(27.86 0 0 17.62 2.14 30.57)" gradientUnits="userSpaceOnUse" x1=".67181" x2=".071039" y1=".02057" y2=".770833"><stop offset="0" stop-color="#1a6cff"/><stop offset="1" stop-color="#c522ff"/></linearGradient><linearGradient id="c" gradientTransform="matrix(11.44 0 0 15.94 .56 20.88)" gradientUnits="userSpaceOnUse" x1=".25" x2="1.136564" y1=".292114" y2="1.143838"><stop offset="0" stop-color="#ffe031"/><stop offset=".98695652174" stop-color="#fc5252"/></linearGradient><linearGradient id="d" gradientTransform="matrix(35.71 0 0 23.11 -.71 .89)" gradientUnits="userSpaceOnUse" x1=".066964" x2=".945136" y1="-.356554" y2=".874663"><stop offset="0" stop-color="#f9d423"/><stop offset=".51562375651" stop-color="#ff4e50"/><stop offset=".99130434783" stop-color="#8a2387"/></linearGradient><linearGradient id="e"><stop offset="0" stop-color="#5800e2"/><stop offset="1" stop-color="#ff00e6"/></linearGradient><linearGradient id="f" gradientTransform="matrix(29 0 0 -29 9.5 38.5)" gradientUnits="userSpaceOnUse" x1="0" x2="1" xlink:href="#e" y1=".5" y2=".5"/><linearGradient id="g" gradientTransform="matrix(15.884 0 0 10.623 14.858 14.722)" gradientUnits="userSpaceOnUse" x1="-.297967" x2="1.441204" xlink:href="#e" y1=".496829" y2=".485062"/><linearGradient id="h" x1="-.266489" x2="1.464813" xlink:href="#e" y1=".508596" y2=".485062"/><path d="m31.47 8.36-1.36 1.47-2.94-2.72 1.36-1.47 5.08-5.47 14.39 13.45v29.2l-19.49 5.34-8.54-5.15-1.71-1.03 2.06-3.43 1.71 1.03 7.08 4.26 14.89-4.07v-24.41l-10.19-9.53z" fill="url(#a)"/><path d="m21.9 36.62 1.09-.62 7.01 2-6.71 2.38-21.15 7.81 3.92-15.68.48-1.94 3.89.97-.49 1.95-2.08 8.32z" fill="url(#b)"/><path d="m11.3 32.48.7.52-1.78 3.82-1.52-1.3-8.14-6.97 2.61-5.84.82-1.83 3.65 1.63-.81 1.83-1.39 3.11z" fill="url(#c)"/><path d="m8.58 19.32 1.91.58-.22 4.1-2.85-.86-8.13-2.46 8.44-19.79 13.91 1.16 9.4 5.74 3.96 2.21-4.615 2.022-1.425-.812-8.6-5.26-10.09-.84-5.56 13.03z" fill="url(#d)"/><path d="m35.978 16.782c0 .695.565 1.26 1.261 1.26.696 0 1.261-.565 1.261-1.26v-4.13c0-1.74-1.412-3.152-3.152-3.152h-22.696c-1.74 0-3.152 1.412-3.152 3.152v11.978c0 .696.565 1.261 1.261 1.261.696 0 1.261-.565 1.261-1.261v-10.717c0-1.044.847-1.891 1.891-1.891h20.174c1.044 0 1.891.847 1.891 1.891zm-23.956 14.436c0-.695-.565-1.26-1.261-1.26-.696 0-1.261.565-1.261 1.26v4.13c0 1.74 1.412 3.152 3.152 3.152h22.696c1.74 0 3.152-1.412 3.152-3.152v-12.495c0-.696-.565-1.261-1.261-1.261-.696 0-1.261.565-1.261 1.261v11.234c0 1.044-.847 1.891-1.891 1.891h-20.174c-1.044 0-1.891-.847-1.891-1.891zm1.978 2.282h9v-2.5h-9z" fill="url(#f)" fill-rule="evenodd"/><path d="m21.862 14.722v1.567h-2.499v7.311h2.499v1.566h-7.004v-1.566h2.482v-7.311h-2.482v-1.567zm4.919 10.623q-1.292 0-2.278-.567-.986-.567-1.513-1.596l1.734-.731q.714 1.208 2.074 1.208 1.938 0 1.938-2.133v-6.804h2.006v6.893q0 1.059-.357 1.82-.357.761-.969 1.157-.612.395-1.258.574-.646.179-1.377.179z" fill="url(#g)" stroke="url(#h)" stroke-linecap="square" stroke-miterlimit="3" stroke-width=".5"/></svg>